<svg width="64" height="64" viewBox="0 0 64 64" fill="none" xmlns="http://www.w3.org/2000/svg">
     <!-- Outer Circle/Swoosh effect - Solid Fill -->
     <path d="M48 6 C 54 6, 60 12, 60 24 C 60 42, 36 50, 26 50 C 17 50, 0 42, 0 24 C 0 12, 12 6, 24 6" fill="#2563EB" opacity="0.9"/>
     
     <!-- House/Tree Fusion - White shape on top -->
     <g transform="translate(6, 6)">
        <!-- House Body -->
        <path d="M17 26 L17 43 H36 V26" stroke="white" stroke-width="4" stroke-linecap="round" stroke-linejoin="round"/>
        <!-- Roof / Leaves -->
        <path d="M12 26 L26 12 L41 26" stroke="white" stroke-width="4" stroke-linecap="round" stroke-linejoin="round"/>
        <!-- Leaf Accent top -->
        <path d="M26 12 Q 26 2, 34 5 Q 38 10, 34 17" fill="white"/>
        <!-- Leaf Accent left -->
        <path d="M14 24 Q 5 22, 7 14 Q 12 10, 19 17" fill="white"/>
     </g>
</svg>
