<svg width="220" height="50" viewBox="0 0 220 50" fill="none" xmlns="http://www.w3.org/2000/svg">
  <!-- Dynamic Logo Icon -->
  <g transform="translate(5, 2)">
     <!-- Outer Circle/Swoosh effect -->
     <path d="M40 5 C 45 5, 50 10, 50 20 C 50 35, 30 42, 22 42 C 14 42, 0 35, 0 20 C 0 10, 10 5, 20 5" stroke="white" stroke-width="2.5" stroke-linecap="round" fill="none" opacity="0.8"/>
     
     <!-- House/Tree Fusion -->
     <!-- House Body -->
     <path d="M14 22 L14 36 H30 V22" stroke="white" stroke-width="2.5" fill="none"/>
     <!-- Roof / Leaves -->
     <path d="M10 22 L22 10 L34 22" stroke="white" stroke-width="2.5" stroke-linecap="round" stroke-linejoin="round"/>
     <!-- Leaf Accent top -->
     <path d="M22 10 Q 22 2, 28 4 Q 32 8, 28 14" fill="white"/>
     <!-- Leaf Accent left -->
     <path d="M12 20 Q 4 18, 6 12 Q 10 8, 16 14" fill="white"/>
  </g>

  <!-- Typography: Modern & Bold -->
  <text x="65" y="35" font-family="'Futura', 'Century Gothic', sans-serif" font-weight="bold" font-size="28" fill="white" letter-spacing="1">HotelTree</text>
</svg>
